<svg id="Layer_1" data-name="Layer 1" xmlns="http://www.w3.org/2000/svg" xmlns:xlink="http://www.w3.org/1999/xlink" viewBox="0 0 162 99"><defs><linearGradient id="linear-gradient" x1="79" y1="0.33" x2="79" y2="92.33" gradientUnits="userSpaceOnUse"><stop offset="0" stop-color="aqua"/><stop offset="1" stop-color="#0071bc"/></linearGradient><linearGradient id="linear-gradient-2" x1="29.71" y1="-0.87" x2="126.29" y2="93.91" gradientUnits="userSpaceOnUse"><stop offset="0" stop-color="#0071bc"/><stop offset="1" stop-color="aqua"/></linearGradient></defs><rect x="4" y="5" width="158" height="94" rx="27.5" style="opacity:0.2"/><rect x="1" y="1" width="156" height="92" rx="26.96" style="stroke:#005a91;stroke-miterlimit:10;stroke-width:2px;fill:url(#linear-gradient)"/><rect x="11" y="11" width="136" height="73" rx="21.34" style="stroke:#00fafd;stroke-miterlimit:10;stroke-width:4px;fill:url(#linear-gradient-2)"/><path d="M28.72,9.69c1.8,2.24-.71,7.25-5.62,11.18S12.77,26.17,11,23.92s.71-7.25,5.61-11.18S26.92,7.44,28.72,9.69Z" transform="translate(-0.13 0.03)" style="fill:#fff"/><path d="M40.53,10.58c.06,1.41-1.69,2.62-3.91,2.71s-4.07-1-4.12-2.38,1.69-2.62,3.91-2.71S40.47,9.18,40.53,10.58Z" transform="translate(-0.13 0.03)" style="fill:#fff"/><path d="M65.39,62c-6.72,0-9.84-2.6-9.84-8.15V41.34c0-5.56,3.12-8.16,9.84-8.16h10c1,0,1.44.44,1.44,1.44v4.84c0,1-.44,1.44-1.44,1.44H67.07c-1.68,0-2.44.64-2.44,2v9.56c0,1.36.6,2,1.84,2h3.88V48.18c0-1,.44-1.44,1.44-1.44H78c1,0,1.44.44,1.44,1.44V60.53c0,1-.44,1.44-1.44,1.44Z" transform="translate(-0.13 0.03)" style="fill:#fff;stroke:#005a91;stroke-miterlimit:10"/><path d="M96.31,62.57c-10,0-12.44-3.28-12.44-8.15V40.78c0-4.88,2.44-8.2,12.44-8.2s12.4,3.32,12.4,8.2V54.42C108.71,59.29,106.31,62.57,96.31,62.57Zm0-7.72c2.92,0,3.36-.8,3.36-1.87V42.22c0-1-.44-1.84-3.36-1.84S93,41.18,93,42.22V53C93,54.05,93.43,54.85,96.31,54.85Z" transform="translate(-0.13 0.03)" style="fill:#fff;stroke:#005a91;stroke-miterlimit:10"/><g style="opacity:0.30000001192092896"><g style="isolation:isolate"><path d="M31.3,27.49H23v-14h3.16V24.93H31.3Z" transform="translate(-0.13 0.03)"/></g><g style="isolation:isolate"><path d="M45.94,27.49H42.5l-1-3.11h-5l-1,3.11H32.12l5.1-14H41ZM40.78,22l-1.5-4.7A6.73,6.73,0,0,1,39,16H39a5.27,5.27,0,0,1-.24,1.22L37.2,22Z" transform="translate(-0.13 0.03)"/><path d="M60.28,27.49H57.1l-5.77-8.8a12.29,12.29,0,0,1-.71-1.16h0a21.13,21.13,0,0,1,.08,2.26v7.7h-3v-14h3.4L56.64,22c.25.39.49.77.7,1.14h0a15.09,15.09,0,0,1-.08-1.92V13.49h3Z" transform="translate(-0.13 0.03)"/><path d="M75,26.55a10.07,10.07,0,0,1-5.1,1.18,7.37,7.37,0,0,1-5.33-1.87,6.81,6.81,0,0,1-1.94-5.15,7.19,7.19,0,0,1,2.13-5.38,7.75,7.75,0,0,1,5.66-2.08,11.58,11.58,0,0,1,3.93.62v3a7.8,7.8,0,0,0-4-.94,4.26,4.26,0,0,0-3.2,1.27,4.71,4.71,0,0,0-1.23,3.41A4.71,4.71,0,0,0,67,23.91a3.91,3.91,0,0,0,3,1.18,4.3,4.3,0,0,0,1.8-.32V22H69V19.51h6Z" transform="translate(-0.13 0.03)"/></g><g style="isolation:isolate"><path d="M89.13,21.43q0,6.3-5.88,6.3-5.7,0-5.7-6.16V13.49h3.16v8.12q0,3.41,2.66,3.4c1.73,0,2.6-1.09,2.6-3.28V13.49h3.16Z" transform="translate(-0.13 0.03)"/></g><g style="isolation:isolate"><path d="M104.05,27.49h-3.44l-1-3.11h-5l-1,3.11H90.23l5.1-14h3.74ZM98.89,22l-1.5-4.7A6.73,6.73,0,0,1,97.15,16h-.08a5.27,5.27,0,0,1-.24,1.22L95.31,22Z" transform="translate(-0.13 0.03)"/></g><g style="isolation:isolate"><path d="M116.1,26.55a10.07,10.07,0,0,1-5.1,1.18,7.37,7.37,0,0,1-5.33-1.87,6.78,6.78,0,0,1-2-5.15,7.19,7.19,0,0,1,2.13-5.38,7.79,7.79,0,0,1,5.67-2.08,11.48,11.48,0,0,1,3.92.62v3a7.74,7.74,0,0,0-4-.94,4.25,4.25,0,0,0-3.2,1.27A4.72,4.72,0,0,0,107,20.57a4.71,4.71,0,0,0,1.11,3.34,4,4,0,0,0,3,1.18,4.22,4.22,0,0,0,1.79-.32V22h-2.8V19.51h6Z" transform="translate(-0.13 0.03)"/><path d="M127.22,27.49h-8.4v-14h8.08v2.56H122v3.12h4.58v2.56H122v3.2h5.24Z" transform="translate(-0.13 0.03)"/><path d="M137.57,24.93h5.94v2.56h-9.32v-1a4.92,4.92,0,0,1,.36-1.93,6.73,6.73,0,0,1,.91-1.54,8,8,0,0,1,1.2-1.2c.43-.35.84-.66,1.23-.94A13.66,13.66,0,0,0,139,20a5.81,5.81,0,0,0,.78-.8,3.21,3.21,0,0,0,.48-.8,2.47,2.47,0,0,0,.15-.86,1.77,1.77,0,0,0-.5-1.36,2.31,2.31,0,0,0-1.56-.46,5.2,5.2,0,0,0-3.45,1.44V14.43A7.46,7.46,0,0,1,139,13.25a6,6,0,0,1,1.91.28,4.06,4.06,0,0,1,1.43.8,3.29,3.29,0,0,1,.89,1.25,4.15,4.15,0,0,1,.31,1.65,4.67,4.67,0,0,1-.3,1.72,5.26,5.26,0,0,1-.79,1.36,7.17,7.17,0,0,1-1.14,1.13c-.43.34-.87.67-1.34,1l-.9.66a7.49,7.49,0,0,0-.77.65,3.17,3.17,0,0,0-.52.62A1.06,1.06,0,0,0,137.57,24.93Z" transform="translate(-0.13 0.03)"/></g></g></svg>